<?xml version="1.0" encoding="UTF-8"?>
<svg width="128px" height="128px" viewBox="0 0 128 128" version="1.1" xmlns="http://www.w3.org/2000/svg">
    <title>Brain Emoji</title>
    <g fill="none" fill-rule="evenodd">
        <circle fill="#FFC0CB" cx="64" cy="64" r="58"></circle>
        <path d="M47,38 C42.5,38 38,42.5 38,48 C38,50.5 39,52.9 40.6,54.6 C38.6,56.6 37.5,59.2 37.5,62 C37.5,65.3 39,68.3 41.5,70.2 C40.5,72 40,74 40,76 C40,82.5 45.5,88 52,88 L60,88 C61.1,88 62,87.1 62,86 L62,72 C62,69.8 60.2,68 58,68 L56,68 C53.8,68 52,66.2 52,64 C52,61.8 53.8,60 56,60 L75,60 C77.2,60 79,58.2 79,56 C79,53.8 77.2,52 75,52 L72,52 C68.7,52 66,49.3 66,46 C66,42.7 68.7,40 72,40 L76,40 C79.3,40 82,42.7 82,46 C82,48 81,49.7 79.5,50.8 C81.1,52.6 82,55 82,57.5 C82,63 77.5,67.5 72,67.5 L70,67.5 C67.8,67.5 66,69.3 66,71.5 L66,86 C66,87.1 66.9,88 68,88 L76,88 C82.5,88 88,82.5 88,76 C88,74 87.5,72 86.5,70.2 C89,68.3 90.5,65.3 90.5,62 C90.5,59.2 89.4,56.6 87.4,54.6 C89,52.9 90,50.5 90,48 C90,42.5 85.5,38 81,38 C77.7,38 74.8,39.7 73.2,42.2 C71.6,39.7 68.7,38 65.5,38 C62.3,38 59.4,39.7 57.8,42.2 C56.2,39.7 53.3,38 50,38 L47,38 Z" fill="#E75A70" fill-rule="nonzero"></path>
        <path d="M47,38 C42.5,38 38,42.5 38,48 C38,50.5 39,52.9 40.6,54.6 C38.6,56.6 37.5,59.2 37.5,62 C37.5,65.3 39,68.3 41.5,70.2 C40.5,72 40,74 40,76 C40,82.5 45.5,88 52,88 L60,88 C61.1,88 62,87.1 62,86 L62,72 C62,69.8 60.2,68 58,68 L56,68 C53.8,68 52,66.2 52,64 C52,61.8 53.8,60 56,60 L75,60 C77.2,60 79,58.2 79,56 C79,53.8 77.2,52 75,52 L72,52 C68.7,52 66,49.3 66,46 C66,42.7 68.7,40 72,40 L76,40 C79.3,40 82,42.7 82,46 C82,48 81,49.7 79.5,50.8 C81.1,52.6 82,55 82,57.5 C82,63 77.5,67.5 72,67.5 L70,67.5 C67.8,67.5 66,69.3 66,71.5 L66,86 C66,87.1 66.9,88 68,88 L76,88 C82.5,88 88,82.5 88,76 C88,74 87.5,72 86.5,70.2 C89,68.3 90.5,65.3 90.5,62 C90.5,59.2 89.4,56.6 87.4,54.6 C89,52.9 90,50.5 90,48 C90,42.5 85.5,38 81,38 C77.7,38 74.8,39.7 73.2,42.2 C71.6,39.7 68.7,38 65.5,38 C62.3,38 59.4,39.7 57.8,42.2 C56.2,39.7 53.3,38 50,38 L47,38 Z" stroke="#FF6B81" stroke-width="2"></path>
        <path d="M56,74 C56,75.1 56.9,76 58,76 C59.1,76 60,75.1 60,74 C60,72.9 59.1,72 58,72 C56.9,72 56,72.9 56,74 Z" fill="#FFFFFF"></path>
        <path d="M68,74 C68,75.1 68.9,76 70,76 C71.1,76 72,75.1 72,74 C72,72.9 71.1,72 70,72 C68.9,72 68,72.9 68,74 Z" fill="#FFFFFF"></path>
    </g>
</svg> 